<svg width="88" height="24" viewBox="0 0 88 24" fill="none" xmlns="http://www.w3.org/2000/svg">
  <g transform="scale(0.046875)">
    <path fill="#DF5F34" d="M338.74 172.047C345.51 178.677 351.169 185.647 356.305 193.592C356.871 194.435 357.438 195.278 358.021 196.146C373.676 220.891 378.032 253.65 371.838 282.071C365.788 304.415 356.031 322.543 339.891 339.279C339.112 340.144 339.112 340.144 338.317 341.025C325.366 354.986 306.862 364.032 288.827 369.327C288.201 369.518 287.576 369.71 286.931 369.907C268.983 375.2 245.682 375.412 227.733 370.238C227.108 370.066 226.482 369.895 225.838 369.719C205.693 364.106 189.076 353.525 173.933 339.279C173.317 338.723 172.701 338.166 172.067 337.593C166.291 332.172 161.901 325.801 157.52 319.247C156.945 318.396 156.37 317.545 155.778 316.669C148.236 304.677 143.303 290.41 141.106 276.452C140.874 274.98 140.874 274.98 140.637 273.478C136.602 242.473 143.724 211.009 162.761 185.925C166.224 181.563 170.07 177.565 173.933 173.561C174.898 172.495 174.898 172.495 175.882 171.409C195.091 150.839 224.911 140.375 252.51 139.02C285.067 138.457 315.153 149.55 338.74 172.047ZM203.113 208.161C190.516 223.148 183.591 241.284 184.875 260.973C186.64 276.103 191.111 288.743 200.377 301.036C201.103 302.014 201.845 303.01 212.537 316.251C230.002 325.6 246.824 327.658 267.526 329.873C286.86 324.492 303.303 311.678C318.887 298.195 327.115 280.382 328.949 260.062C329.977 240.026 322.375 221.118 310.484 207.934C297.401 194.036 279.03 184.754 259.814 184.107C238.262 183.92 217.928 192.422 203.113 208.161Z"/>
    <path fill="#DF5F34" d="M133.213 151.927C135.614 150.973 137.321 153.633 135.851 155.757C134.692 157.434 133.397 159.019 132.047 160.688C118.13 178.451 108.882 199.134 103.547 221C102.578 224.867 94.6719 260.752 101.847 300.229C119.547 332 120.601 333.928 125.289 342.431C130.6 349.857 137.066 357.098C139.79 360.284 136.871 364.534 132.901 363.189C129.331 361.979 125.832 360.554 122.234 359C118.771 357.513 97.2939 348.197 77.1656 337.286C58.5469 323 56.9771 321.82 47.2356 314.49C38.3184 306.457 29.5469 298 26.918 295.496C21.3064 290.041 16.3487 284.175 11.5469 278C8.53291 274.138 5.48438 270.125 4.00049 268.214C0.514158 263.532 0.601876 257.293 4.20345 252.699C5.58081 250.933 6.88608 249.275 9.54688 246C25.1302 226.968 40.7302 210.834 58.5469 197C70.3497 187.835 80.7128 180.668 91.5469 174C103.575 166.641 113.675 161.325 124.047 156.312C127.359 154.707 130.453 153.238 133.213 151.927Z"/>
    <path fill="#DF5F34" d="M379.922 159.363C377.235 155.999 380.119 152.174 384.035 153.963C387.91 155.795 391.172 157.375 394.555 159.012C437.352 179.97 477.647 211.022 506.312 249.355C508.969 252.79 512.503 257.384 509.052 268.205C507.297 270.438 505.652 272.568 493.151 288.614C479.626 303.462 463.547 316 460.352 318.605C437.01 337.558 409.879 351.833 381.922 362.688C377.965 364.221 376.695 364.699 374.482 365.538C373.282 365.824 372.826 365.933 371.938 365.736C370.814 365.487 370.5 364.042 371.312 363.227C402.196 330.886 413.564 289.116 412.779 245.385C412.182 222.321 404.604 200.079 393.547 180C388.364 170.561 384.38 164.926 379.922 159.363Z"/>
    <path fill="#DF5F34" d="M287.145 215.972C297.816 225.099 303.547 235 306.297 248.749C307.456 263.812 304.224 277.627 294.297 289.249C284.832 299.247 273.282 304.924 259.547 305.999C244.702 306.149 232.192 301.732 221.066 291.78C212.869 283.322 207.785 272.738 206.547 260.999C205.557 244.826 210.708 232.301 219.391 221.761C236.714 202.912 266.889 200.59 287.145 215.972Z"/>
  </g>
  <text x="32" y="18" font-family="'IBM Plex Sans', ui-sans-serif, system-ui, sans-serif" font-size="18" font-weight="600" letter-spacing="-0.3" fill="currentColor">iris</text>
</svg>
