<svg width="512" height="512" viewBox="0 0 512 512" fill="none" xmlns="http://www.w3.org/2000/svg">
<g clip-path="url(#clip0_iris)">
<path fill="#DF5F34" d="M338.74 172.047C345.51 178.677 351.169 185.647 356.305 193.592C356.871 194.435 357.438 195.278 358.021 196.146C373.676 220.891 378.032 253.65 371.838 282.071C365.788 304.415 356.031 322.543 339.891 339.279C339.112 340.144 339.112 340.144 338.317 341.025C325.366 354.986 306.862 364.032 288.827 369.327C288.201 369.518 287.576 369.71 286.931 369.907C268.983 375.2 245.682 375.412 227.733 370.238C227.108 370.066 226.482 369.895 225.838 369.719C205.693 364.106 189.076 353.525 173.933 339.279C173.317 338.723 172.701 338.166 172.067 337.593C166.291 332.172 161.901 325.801 157.52 319.247C156.945 318.396 156.37 317.545 155.778 316.669C148.236 304.677 143.303 290.41 141.106 276.452C140.874 274.98 140.874 274.98 140.637 273.478C136.602 242.473 143.724 211.009 162.761 185.925C166.224 181.563 170.07 177.565 173.933 173.561C174.898 172.495 174.898 172.495 175.882 171.409C195.091 150.839 224.911 140.375 252.51 139.02C285.067 138.457 315.153 149.55 338.74 172.047ZM203.113 208.161C190.516 223.148 183.591 241.284 184.875 260.973C186.64 276.103 191.111 288.743 200.377 301.036C201.103 302.014 201.103 302.014 201.845 303.01C212.537 316.251 230.002 325.6 246.824 327.658C267.526 329.873 286.86 324.492 303.303 311.678C318.887 298.195 327.115 280.382 328.949 260.062C329.015 259.378 329.081 258.693 329.148 257.988C329.977 240.026 322.375 221.118 310.484 207.934C297.401 194.036 279.03 184.754 259.814 184.107C238.262 183.92 217.928 192.422 203.113 208.161Z"/>
<path fill="#DF5F34" d="M133.213 151.927C135.614 150.973 137.321 153.633 135.851 155.757C134.692 157.434 133.397 159.019 132.047 160.688C118.13 178.451 108.882 199.134 103.547 221C103.227 222.276 102.907 223.552 102.578 224.867C94.6719 260.752 101.847 300.229 119.547 332C119.895 332.636 120.243 333.273 120.601 333.928C125.289 342.431 130.6 349.857 137.066 357.098C139.79 360.284 136.871 364.534 132.901 363.189C129.331 361.979 125.832 360.554 122.234 359C120.52 358.264 120.52 358.264 118.771 357.513C97.2939 348.197 77.1656 337.286 58.5469 323C58.0288 322.611 57.5108 322.221 56.9771 321.82C47.2356 314.49 38.3184 306.457 29.5469 298C28.6793 297.174 27.8118 296.347 26.918 295.496C21.3064 290.041 16.3487 284.175 11.5469 278C10.8211 277.073 10.8211 277.073 10.0806 276.127C8.53291 274.138 7.00606 272.134 5.48438 270.125C4.99469 269.494 4.50501 268.864 4.00049 268.214C0.514158 263.532 0.601876 257.293 4.20345 252.699C4.25506 252.633 4.30704 252.567 4.35938 252.5C4.76245 251.983 5.16552 251.466 5.58081 250.933C6.88608 249.275 8.21218 247.635 9.54688 246C9.98 245.468 10.4131 244.936 10.8594 244.387C25.1302 226.968 40.7302 210.834 58.5469 197C59.1249 196.549 59.7028 196.099 60.2983 195.635C70.3497 187.835 80.7128 180.668 91.5469 174C92.2718 173.553 92.9967 173.106 93.7437 172.646C103.575 166.641 113.675 161.325 124.047 156.312C125.687 155.518 125.687 155.518 127.359 154.707C128.891 153.98 128.891 153.98 130.453 153.238C131.364 152.806 132.275 152.373 133.213 151.927Z"/>
<path fill="#DF5F34" d="M379.922 159.363C377.235 155.999 380.119 152.174 384.035 153.963C384.3 154.084 384.567 154.208 384.836 154.336C386.357 155.058 386.357 155.058 387.91 155.795C388.986 156.316 390.063 156.838 391.172 157.375C392.847 158.185 392.847 158.185 394.555 159.012C437.352 179.97 477.647 211.022 506.312 249.355C507.181 250.513 508.068 251.656 508.969 252.79C512.503 257.384 512.586 263.61 509.052 268.205C508.487 268.941 507.896 269.677 507.297 270.438C506.754 271.141 506.211 271.844 505.652 272.568C493.151 288.614 479.626 303.462 463.547 316C462.48 316.867 461.415 317.735 460.352 318.605C437.01 337.558 409.879 351.833 381.922 362.688C381.027 363.039 380.132 363.39 379.21 363.752C377.965 364.221 377.965 364.221 376.695 364.699C375.965 364.976 375.234 365.253 374.482 365.538C373.282 365.824 372.826 365.933 371.938 365.736C370.814 365.487 370.5 364.042 371.312 363.227C402.196 330.886 413.564 289.116 412.779 245.385C412.182 222.321 404.604 200.079 393.547 180C392.982 178.946 392.418 177.891 391.836 176.805C388.364 170.561 384.38 164.926 379.922 159.363Z"/>
<path fill="#DF5F34" d="M287.145 215.972C297.816 225.099 303.547 235 306.297 248.749C307.456 263.812 304.224 277.627 294.297 289.249C284.832 299.247 273.282 304.924 259.547 305.999C244.702 306.149 232.192 301.732 221.066 291.78C212.869 283.322 207.785 272.738 206.547 260.999C206.464 260.248 206.382 259.496 206.297 258.722C205.557 244.826 210.708 232.301 219.391 221.761C236.714 202.912 266.889 200.59 287.145 215.972Z"/>
<path fill="#DF5F34" d="M493.606 403.018C499.063 401.901 505.065 403.754 508.898 407.796C511.692 410.742 512.136 415.055 512.195 419.116C512.2 419.483 512.204 419.85 512.207 420.218C512.217 420.95 512.227 421.682 512.237 422.437C512.267 424.863 512.288 427.288 512.307 429.714C512.314 430.546 512.32 431.378 512.327 432.235C512.36 436.645 512.384 441.055 512.403 445.465C512.421 449.097 512.456 452.729 512.506 456.361C512.567 460.761 512.597 465.16 512.607 469.56C512.615 471.227 512.634 472.895 512.663 474.562C512.851 485.762 511.987 494.946 504.375 503.912C502.67 505.515 500.981 506.761 498.998 507.999C498.433 508.363 497.869 508.727 497.286 509.101C489.506 513.245 481.012 512.559 472.452 512.496C470.75 512.496 469.049 512.497 467.347 512.5C463.797 512.501 460.247 512.489 456.696 512.466C452.151 512.438 447.607 512.44 443.061 512.453C439.554 512.46 436.047 512.452 432.54 512.44C430.864 512.435 429.188 512.435 427.512 512.439C425.172 512.442 422.832 512.425 420.492 512.404C419.804 512.408 419.116 512.413 418.407 512.417C416.07 512.381 414.219 512.141 412.464 511.515C409.242 510.365 406.655 507.835 404.902 504.898C403.123 501.919 402.67 499.122 402.709 494.542C402.892 492.937 403.358 491.453 404.035 490.075C406.752 484.544 413.042 481.875 419.205 481.885C419.359 481.885 419.515 481.886 419.673 481.886C420.346 481.886 421.02 481.886 421.714 481.886C423.938 481.886 426.161 481.894 428.385 481.902C429.928 481.904 431.471 481.905 433.013 481.906C437.072 481.91 441.131 481.92 445.19 481.931C449.333 481.941 453.475 481.946 457.618 481.951C464.883 481.96 472.148 481.975 479.413 481.993C480.836 481.996 481.989 480.837 481.978 479.414C481.918 471.365 481.872 463.317 481.843 455.269C481.827 451.132 481.806 446.994 481.772 442.857C481.739 438.863 481.722 434.869 481.714 430.874C481.708 429.352 481.697 427.829 481.681 426.307C481.659 424.171 481.656 422.037 481.658 419.901C481.648 418.079 481.648 418.079 481.638 416.22C482.178 411.394 483.963 408.909 487.561 405.749C489.626 404.267 491.58 403.432 493.606 403.018Z"/>
<path fill="#DF5F34" d="M11.7348 403.107C17.0976 401.952 23.0063 403.759 26.8138 407.708C29.6904 410.691 30.1119 415.101 30.1123 419.245C30.1123 419.388 30.1121 419.531 30.1119 419.674C30.112 420.347 30.1122 421.021 30.1123 421.714C30.1116 423.938 30.1038 426.162 30.096 428.386C30.0941 429.929 30.0927 431.471 30.0917 433.014C30.0879 437.073 30.0781 441.132 30.067 445.191C30.0568 449.333 30.0522 453.476 30.0472 457.618C30.0376 464.883 30.0229 472.148 30.0049 479.413C30.0014 480.837 31.1605 481.99 32.5842 481.979C40.6324 481.919 48.6804 481.873 56.7287 481.844C60.8663 481.828 65.0037 481.807 69.1412 481.773C73.1353 481.74 77.1292 481.722 81.1234 481.715C82.646 481.709 84.1686 481.698 85.6912 481.682C87.8266 481.66 89.9612 481.657 92.0967 481.659C93.3114 481.652 94.5261 481.645 95.7776 481.638C100.604 482.179 103.089 483.964 106.248 487.562C107.731 489.626 108.565 491.581 108.98 493.607C110.097 499.064 108.243 505.065 104.202 508.898C101.256 511.693 96.9424 512.137 92.8815 512.195C92.5148 512.201 92.1477 512.205 91.7798 512.208C91.0477 512.218 90.3155 512.227 89.5611 512.238C87.1353 512.268 84.7095 512.289 82.2835 512.308C81.4517 512.314 80.62 512.321 79.763 512.328C75.3531 512.36 70.9432 512.385 66.5333 512.404C62.9007 512.422 59.269 512.457 55.6368 512.507C51.2371 512.567 46.8382 512.598 42.4381 512.607C40.7705 512.616 39.1029 512.635 37.4355 512.664C26.236 512.852 17.0519 511.988 8.08589 504.375C6.48303 502.67 5.23685 500.982 3.99835 498.999C3.63479 498.434 3.27123 497.869 2.89665 497.287C-1.24739 489.506 -0.561471 481.013 -0.49774 472.452C-0.497895 470.751 -0.499388 469.049 -0.50215 467.348C-0.503528 463.797 -0.491062 460.247 -0.468199 456.697C-0.439729 452.152 -0.442583 447.607 -0.45529 443.062C-0.462249 439.555 -0.454456 436.048 -0.442032 432.541C-0.437526 430.865 -0.437174 429.189 -0.441098 427.513C-0.444014 425.172 -0.427485 422.833 -0.405699 420.492C-0.410201 419.804 -0.414702 419.117 -0.41934 418.408C-0.383276 416.071 -0.143117 414.219 0.483091 412.464C1.63264 409.242 4.1738 406.668 7.12295 404.935C8.64545 404.04 10.1378 403.451 11.7348 403.107Z"/>
<path fill="#DF5F34" d="M420.218 -0.209194C420.95 -0.218978 421.682 -0.228761 422.437 -0.238842C424.863 -0.268775 427.288 -0.290185 429.714 -0.309047C430.546 -0.315619 431.378 -0.322191 432.235 -0.328962C436.645 -0.361559 441.055 -0.386 445.465 -0.405483C449.097 -0.423231 452.729 -0.457945 456.361 -0.508022C460.761 -0.568599 465.16 -0.599011 469.56 -0.608655C471.227 -0.617154 472.895 -0.635833 474.562 -0.665399C485.762 -0.853165 494.946 0.0106173 503.912 7.62334C505.515 9.32835 506.761 11.0166 507.999 12.9995C508.545 13.847 508.545 13.847 509.101 14.7115C513.245 22.4924 512.559 30.9856 512.496 39.5464C512.496 41.2479 512.497 42.9495 512.5 44.651C512.501 48.2014 512.489 51.7514 512.466 55.3018C512.438 59.8469 512.44 64.3914 512.453 68.9365C512.46 72.4436 512.452 75.9505 512.44 79.4576C512.435 81.1337 512.435 82.8098 512.439 84.4859C512.442 86.8264 512.425 89.166 512.404 91.5064C512.408 92.1943 512.413 92.8822 512.417 93.5909C512.381 95.9277 512.141 97.7793 511.515 99.5344C510.365 102.756 507.835 105.342 504.899 107.098C501.92 108.879 499.119 109.336 494.539 109.277C492.371 109.04 490.791 108.492 489.309 107.589C486.917 106.132 484.994 103.974 483.614 101.537C482.012 98.7086 481.515 96.0743 481.545 91.9844C481.545 91.3105 481.544 90.6367 481.544 89.9424C481.546 87.7343 481.577 85.5277 481.609 83.3199C481.616 81.7814 481.622 80.243 481.626 78.7046C481.641 74.6701 481.68 70.6361 481.725 66.6018C481.766 62.4792 481.784 58.3566 481.804 54.2339C481.842 47.0175 481.901 39.8015 481.973 32.5854C481.987 31.1649 480.834 30.0086 479.414 30.0197C471.365 30.0799 463.317 30.1255 455.269 30.155C451.132 30.1706 446.994 30.1918 442.857 30.2259C438.863 30.2585 434.869 30.2764 430.874 30.2842C429.352 30.2897 427.829 30.3005 426.307 30.3167C424.171 30.3386 422.037 30.3415 419.901 30.3401C418.079 30.3501 418.079 30.3501 416.22 30.3603C411.394 29.8197 408.909 28.0352 405.749 24.437C404.501 22.6982 403.712 21.0374 403.246 19.3464C401.595 13.3509 403.705 6.31221 408.705 2.61436C411.562 0.501382 415.056 -0.165594 420.218 -0.209194Z"/>
<path fill="#DF5F34" d="M39.5472 -0.495787C41.2487 -0.495942 42.9502 -0.497434 44.6518 -0.500197C48.2022 -0.501575 51.7522 -0.489109 55.3026 -0.466246C59.8477 -0.437776 64.3922 -0.440629 68.9373 -0.453336C72.4444 -0.460295 75.9513 -0.452503 79.4584 -0.440079C81.1345 -0.435573 82.8106 -0.43522 84.4867 -0.439144C86.8272 -0.442061 89.1668 -0.425532 91.5072 -0.403746C92.539 -0.410498 92.539 -0.410498 93.5917 -0.417387C95.9285 -0.381323 97.7801 -0.141163 99.5352 0.485044C102.757 1.63459 105.343 4.16442 107.097 7.10162C108.875 10.0804 109.329 12.8776 109.289 17.4573C109.107 19.0624 108.64 20.5467 107.964 21.9243C105.247 27.4555 98.9564 30.1248 92.794 30.1147C92.6397 30.1144 92.4837 30.1141 92.3258 30.1138C91.6523 30.114 90.9789 30.1141 90.2851 30.1143C88.0612 30.1136 85.8375 30.1058 83.6136 30.098C82.0709 30.0961 80.5282 30.0947 78.9855 30.0937C74.9265 30.0899 70.8675 30.08 66.8086 30.069C62.6661 30.0587 58.5237 30.0542 54.3812 30.0491C47.1162 30.0395 39.8512 30.0249 32.5863 30.0069C31.1625 30.0033 30.0094 31.1624 30.0205 32.5862C30.0807 40.6343 30.1263 48.6824 30.1558 56.7307C30.1714 60.8683 30.1926 65.0057 30.2267 69.1431C30.2593 73.1372 30.2772 77.1311 30.285 81.1254C30.2905 82.648 30.3013 84.1706 30.3175 85.6931C30.3394 87.8285 30.3423 89.9632 30.3409 92.0987C30.3476 93.3134 30.3542 94.528 30.3611 95.7795C29.8205 100.606 28.036 103.091 24.4378 106.25C21.8661 108.097 19.4751 108.931 16.9056 109.206C12.3507 109.693 7.5583 108.325 4.33486 105.07C0.850944 101.553 -0.513608 96.495 -0.548259 91.5441C-0.559201 90.7086 -0.569423 89.976 -0.579954 89.2211C-0.607635 86.8113 -0.60584 84.4025 -0.601225 81.9925C-0.609009 80.3035 -0.61768 78.6144 -0.627195 76.9254C-0.642099 73.3864 -0.641556 69.8479 -0.63101 66.3089C-0.619465 61.8032 -0.653179 57.2991 -0.699698 52.7937C-0.729371 49.3034 -0.73089 45.8136 -0.72468 42.3232C-0.725698 40.664 -0.736012 39.0048 -0.756304 37.3458C-0.875803 26.203 0.0589285 17.0012 7.62372 8.08743C9.32899 6.48513 11.0175 5.23871 13.0003 4.00031C13.5653 3.63675 14.1302 3.27318 14.7123 2.89861C22.4932 -1.24544 30.9864 -0.559518 39.5472 -0.495787Z"/>
</g>
<defs>
<clipPath id="clip0_iris">
<rect width="512" height="512" fill="white"/>
</clipPath>
</defs>
</svg>
