<svg width="118" height="24" viewBox="0 0 118 24" fill="none" xmlns="http://www.w3.org/2000/svg">
  <svg x="0" y="0" width="24" height="24" viewBox="0 0 512 512" fill="none">
    <g clip-path="url(#b)">
      <path fill="#DF5F34" d="M338.74 172.047C345.51 178.677 351.169 185.647 356.305 193.592C356.871 194.435 357.438 195.278 358.021 196.146C373.676 220.891 378.032 253.65 371.838 282.071C365.788 304.415 356.031 322.543 339.891 339.279C339.112 340.144 339.112 340.144 338.317 341.025C325.366 354.986 306.862 364.032 288.827 369.327C288.201 369.518 287.576 369.71 286.931 369.907C268.983 375.2 245.682 375.412 227.733 370.238C227.108 370.066 226.482 369.895 225.838 369.719C205.693 364.106 189.076 353.525 173.933 339.279C173.317 338.723 172.701 338.166 172.067 337.593C166.291 332.172 161.901 325.801 157.52 319.247C156.945 318.396 156.37 317.545 155.778 316.669C148.236 304.677 143.303 290.41 141.106 276.452C140.874 274.98 140.874 274.98 140.637 273.478C136.602 242.473 143.724 211.009 162.761 185.925C166.224 181.563 170.07 177.565 173.933 173.561C174.898 172.495 174.898 172.495 175.882 171.409C195.091 150.839 224.911 140.375 252.51 139.02C285.067 138.457 315.153 149.55 338.74 172.047ZM203.113 208.161C190.516 223.148 183.591 241.284 184.875 260.973C186.64 276.103 191.111 288.743 200.377 301.036C201.103 302.014 201.103 302.014 201.845 303.01C212.537 316.251 230.002 325.6 246.824 327.658C267.526 329.873 286.86 324.492 303.303 311.678C318.887 298.195 327.115 280.382 328.949 260.062C329.015 259.378 329.081 258.693 329.148 257.988C329.977 240.026 322.375 221.118 310.484 207.934C297.401 194.036 279.03 184.754 259.814 184.107C238.262 183.92 217.928 192.422 203.113 208.161Z"/>
      <path fill="#DF5F34" d="M133.213 151.927C135.614 150.973 137.321 153.633 135.851 155.757C134.692 157.434 133.397 159.019 132.047 160.688C118.13 178.451 108.882 199.134 103.547 221C103.227 222.276 102.907 223.552 102.578 224.867C94.6719 260.752 101.847 300.229 119.547 332C119.895 332.636 120.243 333.273 120.601 333.928C125.289 342.431 130.6 349.857 137.066 357.098C139.79 360.284 136.871 364.534 132.901 363.189C129.331 361.979 125.832 360.554 122.234 359C120.52 358.264 120.52 358.264 118.771 357.513C97.2939 348.197 77.1656 337.286 58.5469 323C58.0288 322.611 57.5108 322.221 56.9771 321.82C47.2356 314.49 38.3184 306.457 29.5469 298C28.6793 297.174 27.8118 296.347 26.918 295.496C21.3064 290.041 16.3487 284.175 11.5469 278C10.8211 277.073 10.8211 277.073 10.0806 276.127C8.53291 274.138 7.00606 272.134 5.48438 270.125C4.99469 269.494 4.50501 268.864 4.00049 268.214C0.514158 263.532 0.601876 257.293 4.20345 252.699C4.76245 251.983 5.16552 251.466 5.58081 250.933C6.88608 249.275 8.21218 247.635 9.54688 246C10.8594 244.387 25.1302 226.968 40.7302 210.834C58.5469 197 60.2983 195.635 70.3497 187.835C80.7128 180.668 91.5469 174 93.7437 172.646C103.575 166.641 113.675 161.325 124.047 156.312C125.687 155.518 127.359 154.707 130.453 153.238C131.364 152.806 132.275 152.373 133.213 151.927Z"/>
      <path fill="#DF5F34" d="M379.922 159.363C377.235 155.999 380.119 152.174 384.035 153.963C384.3 154.084 384.567 154.208 384.836 154.336C386.357 155.058 387.91 155.795 391.172 157.375C392.847 158.185 394.555 159.012 437.352 179.97C477.647 211.022 506.312 249.355 508.969 252.79C512.503 257.384 512.586 263.61 509.052 268.205C507.297 270.438 505.652 272.568 493.151 288.614C479.626 303.462 463.547 316 460.352 318.605C437.01 337.558 409.879 351.833 381.922 362.688C380.132 363.39 379.21 363.752 376.695 364.699C375.234 365.253 374.482 365.538 371.938 365.736C370.814 365.487 370.5 364.042 371.312 363.227C402.196 330.886 413.564 289.116 412.779 245.385C412.182 222.321 404.604 200.079 393.547 180C391.836 176.805 388.364 170.561 384.38 164.926C379.922 159.363 379.922 159.363 379.922 159.363Z"/>
      <path fill="#DF5F34" d="M287.145 215.972C297.816 225.099 303.547 235 306.297 248.749C307.456 263.812 304.224 277.627 294.297 289.249C284.832 299.247 273.282 304.924 259.547 305.999C244.702 306.149 232.192 301.732 221.066 291.78C212.869 283.322 207.785 272.738 206.547 260.999C205.557 244.826 210.708 232.301 219.391 221.761C236.714 202.912 266.889 200.59 287.145 215.972Z"/>
      <path fill="#DF5F34" d="M493.606 403.018C499.063 401.901 505.065 403.754 508.898 407.796C511.692 410.742 512.136 415.055 512.195 419.116C512.237 422.437 512.267 424.863 512.307 429.714C512.327 432.235 512.36 436.645 512.403 445.465C512.456 452.729 512.506 456.361 512.567 460.761C512.607 469.56 512.663 474.562 512.851 485.762C511.987 494.946 504.375 503.912 498.998 507.999C497.286 509.101 489.506 513.245 481.012 512.559C472.452 512.496 467.347 512.5 463.797 512.501C456.696 512.466 447.607 512.44 443.061 512.453C436.047 512.452 427.512 512.439 420.492 512.404C416.07 512.381 412.464 511.515 409.242 510.365C406.655 507.835 402.709 494.542 404.035 490.075C406.752 484.544 419.205 481.885 428.385 481.902C433.013 481.906 441.131 481.92 457.618 481.951C472.148 481.975 479.413 481.993 481.978 479.414C481.843 455.269 481.772 442.857 481.714 430.874C481.659 424.171 481.638 416.22 482.178 411.394C483.963 408.909 487.561 405.749 493.606 403.018Z"/>
      <path fill="#DF5F34" d="M11.7348 403.107C17.0976 401.952 23.0063 403.759 26.8138 407.708C29.6904 410.691 30.1123 419.245 30.096 428.386C30.0879 437.073 30.067 445.191 30.0472 457.618C30.0229 472.148 30.0049 479.413 32.5842 481.979C48.6804 481.873 65.0037 481.807 81.1234 481.715C87.8266 481.66 95.7776 481.638 100.604 482.179C106.248 487.562 110.097 499.064 104.202 508.898C96.9424 512.137 89.5611 512.238 82.2835 512.308C70.9432 512.385 59.269 512.457 42.4381 512.607C26.236 512.852 8.08589 504.375 3.99835 498.999C-1.24739 489.506 -0.49774 472.452 -0.468199 456.697C-0.442583 447.607 -0.462249 439.555 -0.441098 427.513C-0.405699 420.492 0.483091 412.464 7.12295 404.935C8.64545 404.04 10.1378 403.451 11.7348 403.107Z"/>
      <path fill="#DF5F34" d="M420.218-0.209194C424.863-0.268775 429.714-0.309047 436.645-0.361559C445.465-0.405483 452.729-0.457945 460.761-0.568599C469.56-0.608655 474.562-0.665399 485.762-0.853165C494.946 0.0106173 503.912 7.62334 507.999 12.9995C509.101 14.7115 513.245 22.4924 512.496 39.5464C512.5 44.651 512.466 55.3018 512.453 68.9365C512.44 79.4576 512.439 84.4859 512.404 91.5064C512.381 95.9277 511.515 99.5344 507.835 105.342C501.92 108.879 494.539 109.277 489.309 107.589C484.994 103.974 481.545 91.9844 481.609 83.3199C481.641 74.6701 481.725 66.6018 481.804 54.2339C481.901 39.8015 481.973 32.5854 479.414 30.0197C463.317 30.1255 446.994 30.1918 430.874 30.2842C424.171 30.3386 416.22 30.3603 411.394 29.8197C405.749 24.437 401.595 13.3509 408.705 2.61436C411.562 0.501382 415.056-0.165594 420.218-0.209194Z"/>
      <path fill="#DF5F34" d="M39.5472-0.495787C48.2022-0.501575 55.3026-0.466246 68.9373-0.453336C75.9513-0.452503 82.8106-0.43522 91.5072-0.403746C95.9285-0.381323 99.5352 0.485044 105.343 4.16442C108.875 10.0804 109.289 17.4573 107.964 21.9243C105.247 27.4555 92.794 30.1147 83.6136 30.098C74.9265 30.0899 62.6661 30.0587 47.1162 30.0395C32.5863 30.0069 30.0094 31.1624 30.0205 32.5862C30.1263 48.6824 30.1926 65.0057 30.285 81.1254C30.3394 87.8285 30.3611 95.7795 29.8205 100.606C28.036 103.091 19.4751 108.931 12.3507 109.693C4.33486 105.07-0.548259 91.5441-0.627195 76.9254C-0.653179 57.2991-0.72468 42.3232-0.875803 26.203C0.0589285 17.0012 7.62372 8.08743 13.0003 4.00031C14.7123 2.89861 22.4932-1.24544 39.5472-0.495787Z"/>
    </g>
    <defs>
      <clipPath id="b"><rect width="512" height="512" fill="white"/></clipPath>
    </defs>
  </svg>
  <text x="32" y="17.5" font-family="'IBM Plex Sans', ui-sans-serif, system-ui, sans-serif" font-size="17" font-weight="600" letter-spacing="-0.4" fill="#F0F1F3">Iris Code</text>
</svg>
